<?xml version="1.0" standalone="no"?><!DOCTYPE svg PUBLIC "-//W3C//DTD SVG 1.1//EN" "http://www.w3.org/Graphics/SVG/1.1/DTD/svg11.dtd"><svg t="1636811117736" class="icon" viewBox="0 0 1024 1024" version="1.1" xmlns="http://www.w3.org/2000/svg" p-id="7281" width="48" height="48" xmlns:xlink="http://www.w3.org/1999/xlink"><defs><style type="text/css"></style></defs><path d="M860.8 571.52H638.72c-17.92 0-32-14.08-32-32s14.08-32 32-32h222.08c17.92 0 32 14.08 32 32s-14.08 32-32 32zM512.64 571.52H167.68c-17.92 0-32-14.08-32-32s14.08-32 32-32h344.96c17.92 0 32 14.08 32 32s-14.08 32-32 32z" fill="#515151" p-id="7282"></path><path d="M514.56 917.76c-17.92 0-32-14.08-32-32V192.64c0-17.92 14.08-32 32-32s32 14.08 32 32v693.12c0 17.92-14.72 32-32 32z" fill="#515151" p-id="7283"></path></svg>