<?xml version="1.0" standalone="no"?><!DOCTYPE svg PUBLIC "-//W3C//DTD SVG 1.1//EN" "http://www.w3.org/Graphics/SVG/1.1/DTD/svg11.dtd"><svg t="1636771842663" class="icon" viewBox="0 0 1026 1024" version="1.1" xmlns="http://www.w3.org/2000/svg" p-id="15945" width="48.09375" height="48" xmlns:xlink="http://www.w3.org/1999/xlink"><defs><style type="text/css"></style></defs><path d="M1011.690496 309.76c-5.12-2.56-10.24-2.56-17.92 0-5.12 2.56-10.24 7.68-12.8 12.8-71.68 163.84-204.8 212.48-320 222.72 71.68-25.6 128-66.56 168.96-120.32C922.090496 302.08 896.490496 156.16 896.490496 156.16c0-5.12-5.12-10.24-10.24-15.36-5.12-2.56-10.24-5.12-17.92-2.56-12.8 2.56-20.48 12.8-17.92 25.6 0 2.56 20.48 130.56-56.32 235.52-30.72 40.96-76.8 74.24-130.56 97.28 15.36-15.36 28.16-33.28 38.4-51.2C778.730496 307.2 719.850496 128 717.290496 120.32c-5.12-10.24-15.36-17.92-28.16-12.8-2.56 0-5.12 2.56-5.12 2.56-2.56-10.24-5.12-20.48-7.68-30.72-2.56-5.12-5.12-10.24-10.24-12.8-5.12-2.56-10.24-2.56-17.92-2.56-12.8 2.56-17.92 15.36-15.36 28.16 56.32 189.44 10.24 304.64-40.96 368.64 35.84-87.04 51.2-222.72-35.84-399.36C548.330496 51.2 535.530496 46.08 525.290496 51.2c-10.24 5.12-15.36 17.92-10.24 30.72 2.56 7.68 7.68 12.8 10.24 20.48-7.68 0-12.8 5.12-15.36 10.24-2.56 2.56-15.36 28.16-30.72 64-5.12-7.68-15.36-10.24-23.04-7.68-12.8 2.56-17.92 15.36-15.36 28.16 5.12 15.36 7.68 28.16 12.8 40.96-7.68 20.48-12.8 40.96-17.92 58.88-17.92 66.56-23.04 125.44-12.8 171.52-17.92-20.48-38.4-48.64-53.76-84.48-10.24-133.12 46.08-302.08 46.08-302.08 2.56-12.8-2.56-23.04-12.8-28.16-5.12-2.56-12.8-2.56-17.92 0-5.12 2.56-10.24 7.68-10.24 12.8-2.56 5.12-30.72 89.6-43.52 192-5.12-33.28-10.24-71.68-10.24-110.08 0-5.12-2.56-12.8-7.68-15.36C305.130496 130.56 300.010496 128 292.330496 128c-5.12 0-10.24 2.56-15.36 7.68-5.12 5.12-5.12 10.24-5.12 15.36 0 0-2.56 0-2.56 0-5.12 0-12.8 0-17.92 2.56C248.810496 156.16 243.690496 161.28 243.690496 166.4c0 5.12-25.6 128 12.8 238.08 10.24 30.72 25.6 58.88 43.52 81.92 2.56 5.12 7.68 10.24 12.8 12.8-79.36-30.72-153.6-92.16-174.08-209.92 0-5.12-5.12-10.24-10.24-15.36-5.12-2.56-10.24-5.12-15.36-2.56-12.8 2.56-20.48 12.8-17.92 25.6 15.36 79.36 51.2 135.68 94.72 176.64-33.28-17.92-56.32-35.84-74.24-51.2-58.88-56.32-71.68-115.2-71.68-115.2-2.56-12.8-12.8-20.48-25.6-17.92-12.8 2.56-20.48 12.8-17.92 25.6 0 2.56 2.56 7.68 5.12 17.92 17.92 53.76 104.96 232.96 432.64 240.64 12.8 5.12 25.6 7.68 38.4 7.68 2.56 135.68 0 248.32-5.12 353.28 0 12.8 5.12 23.04 15.36 28.16 5.12 2.56 12.8 5.12 17.92 5.12 5.12 0 12.8-2.56 17.92-5.12 10.24-5.12 15.36-15.36 15.36-28.16-2.56-104.96-5.12-212.48-10.24-353.28l74.24 2.56c115.2 5.12 322.56-23.04 422.4-250.88C1027.050496 327.68 1021.930496 314.88 1011.690496 309.76zM499.690496 240.64c17.92-46.08 35.84-81.92 43.52-97.28 46.08 122.88 35.84 217.6 15.36 279.04-5.12 15.36-10.24 30.72-17.92 46.08C538.090496 419.84 527.850496 345.6 499.690496 240.64zM494.570496 499.2c-5.12 0-10.24 2.56-12.8 2.56-30.72-46.08-23.04-117.76-7.68-181.76C492.010496 407.04 497.130496 463.36 494.570496 499.2zM279.530496 248.32c7.68 56.32 23.04 104.96 40.96 151.04 2.56 23.04 5.12 40.96 10.24 58.88C284.650496 394.24 276.970496 307.2 279.530496 248.32z" p-id="15946" fill="#ffffff"></path></svg>