<?xml version="1.0" standalone="no"?><!DOCTYPE svg PUBLIC "-//W3C//DTD SVG 1.1//EN" "http://www.w3.org/Graphics/SVG/1.1/DTD/svg11.dtd"><svg t="1636768036593" class="icon" viewBox="0 0 1024 1024" version="1.1" xmlns="http://www.w3.org/2000/svg" p-id="8490" width="48" height="48" xmlns:xlink="http://www.w3.org/1999/xlink"><defs><style type="text/css"></style></defs><path d="M907.635893 512.012818a140.847107 140.847107 0 0 0 115.364394 138.437273l-135.642891 234.958817a140.770198 140.770198 0 0 0-239.778485 138.437273H376.472585a140.770198 140.770198 0 0 0-239.88103-138.180908l-135.617255-234.881907a140.744561 140.744561 0 0 0-0.487094-276.874546l135.745437-235.112635a140.718924 140.718924 0 0 0 239.650302-138.796185h271.74724a140.718924 140.718924 0 0 0 239.855393 138.437273l135.87362 235.163909a141.000926 141.000926 0 0 0-115.723305 138.411636z m-71.500288-245.444158c-43.24883 50.965426-153.53719 20.99632-203.425882-20.304133-53.29835-44.146108-84.600556-106.494154-62.066044-169.43184h-143.56458c22.585785 62.963323-27.687455 134.950705-87.651303 169.560023a140.847107 140.847107 0 0 1-177.63553-30.763839l-84.472374 132.566507c65.706432 11.997897 89.984228 94.855169 89.984228 164.073806s-24.021431 151.870816-89.497134 164.073805l84.344191 132.335778c43.274466-50.70906 143.333851-39.505896 203.14388-4.973487a141.000926 141.000926 0 0 1 62.373682 168.790927h142.923667c-22.201237-62.809504-13.510452-95.88063 36.660241-143.308214 63.142778-59.681847 138.616729-108.621986 213.78304-84.780012l73.70503-68.321358c-65.603886-12.074807-89.727862-69.346819-89.727862-138.437273 0-54.067446 24.226523-152.075908 89.907318-164.073805z m-389.675288 340.376236a85.113286 85.113286 0 0 0 114.44148-37.531882 101.802669 101.802669 0 0 0 13.074631-42.813009l51.426883-13.766818a156.895576 156.895576 0 1 1-10.613524-50.247603l-49.52978 13.279724a101.828305 101.828305 0 0 0-41.890093-46.530306c-49.068322-28.328368-86.138748-37.147335-114.441479 11.895351s-15.381919 145.820594 37.660065 165.714543z" fill="#48BAF2" p-id="8491"></path><path d="M907.635893 512.012818a140.847107 140.847107 0 0 0 115.364394 138.437273l-135.642891 234.958817a140.770198 140.770198 0 0 0-239.778485 138.437273H376.472585a140.770198 140.770198 0 0 0-239.88103-138.180908l-135.617255-234.881907a140.744561 140.744561 0 0 0-0.487094-276.874546l135.745437-235.112635a140.718924 140.718924 0 0 0 239.650302-138.796185h271.74724a140.718924 140.718924 0 0 0 239.855393 138.437273l135.87362 235.163909a141.000926 141.000926 0 0 0-115.723305 138.411636zM861.772137 215.295596c-43.24883 50.965426-143.56458 39.941717-203.425882 5.332399a140.847107 140.847107 0 0 1-62.066044-169.43184h-169.201112a141.000926 141.000926 0 0 1-62.014771 169.560023c-59.886939 34.583682-160.023233 45.6843-203.272062-5.127307l-84.472374 132.566507c65.706432 11.997897 89.984228 94.855169 89.984228 164.073806s-24.021431 151.870816-89.497134 164.073805l84.344191 132.335778c43.274466-50.70906 143.333851-39.505896 203.14388-4.973487a141.000926 141.000926 0 0 1 62.373682 168.790927h168.560199c-22.201237-62.809504 28.200185-134.437974 87.933305-168.944746s134.181609-45.735573 177.481711 4.947851l84.369827-132.412689c-65.603886-12.074807-89.727862-94.983351-89.727862-164.073805s24.226523-152.075908 89.907318-164.073805z m-389.675287 366.012768a101.956488 101.956488 0 0 0 153.152642-80.344891l51.426883-13.766818a156.895576 156.895576 0 1 1-10.613524-50.247603l-49.52978 13.279724a102.546128 102.546128 0 1 0-144.308039 131.079588z" fill="#4076FE" p-id="8492"></path></svg>